<svg xmlns="http://www.w3.org/2000/svg" xmlns:xlink="http://www.w3.org/1999/xlink" version="1.0" id="katman_1" x="0px" y="0px" style="enable-background:new 0 0 600 450;" xml:space="preserve" viewBox="72.3 151.7 455.8 147.3">
<style type="text/css">
	.st0{fill:#116FB7;}
	.st1{fill:#72237A;}
	.st2{fill:#B22585;}
	.st3{fill:#D92B81;}
	.st4{fill:#08488F;}
</style>
<path class="st0" d="M144.3,186.4h-16.7c-5,0-9-4-9-9v-16.7c0-5,4-9,9-9h16.7c5,0,9,4,9,9v16.7C153.3,182.4,149.3,186.4,144.3,186.4  "/>
<path class="st1" d="M101.2,223.8H82.4c-5.6,0-10.1-4.5-10.1-10.1v-18.8c0-5.6,4.5-10.1,10.1-10.1h18.8c5.6,0,10.1,4.5,10.1,10.1  v18.8C111.3,219.3,106.8,223.8,101.2,223.8"/>
<path class="st2" d="M99.4,262.8H87.9c-3.4,0-6.2-2.8-6.2-6.2v-11.5c0-3.4,2.8-6.2,6.2-6.2h11.5c3.4,0,6.2,2.8,6.2,6.2v11.5  C105.6,260,102.8,262.8,99.4,262.8"/>
<path class="st3" d="M130.2,299h-13.6c-4,0-7.3-3.3-7.3-7.3v-13.6c0-4,3.3-7.3,7.3-7.3h13.6c4,0,7.3,3.3,7.3,7.3v13.6  C137.5,295.8,134.2,299,130.2,299"/>
<path class="st3" d="M179.9,193.2h-9.4c-2.8,0-5.1-2.3-5.1-5v-9.4c0-2.8,2.3-5.1,5.1-5.1h9.4c2.8,0,5,2.3,5,5.1v9.4  C184.9,190.9,182.7,193.2,179.9,193.2"/>
<circle class="st4" cx="385.5" cy="194.1" r="5.4"/>
<path class="st4" d="M187.8,257.2c-0.8,1.3-2.2,1.9-3.7,1.9c-0.8,0-1.8-0.2-2.5-0.6c-1.2-0.7-2-2.3-2-3.9c0-0.7,0.2-1.5,0.6-2.1  l12.6-19.8L180.3,213c-0.4-0.6-0.6-1.5-0.6-2.2c0-1.5,0.7-3,2.1-3.8c0.7-0.4,1.5-0.6,2.3-0.6c1.5,0,2.9,0.6,3.8,1.9l10.3,16.2  l10.4-16.2c0.8-1.3,2.3-1.9,3.8-1.9c0.8,0,1.6,0.2,2.3,0.6c1.4,0.7,2.1,2.3,2.1,3.8c0,0.7-0.2,1.6-0.6,2.2l-12.6,19.8l12.6,19.8  c0.4,0.6,0.6,1.4,0.6,2.1c0,1.6-0.8,3.1-2,3.9c-0.7,0.4-1.7,0.6-2.5,0.6c-1.5,0-2.8-0.6-3.7-1.9l-10.4-16.1L187.8,257.2z"/>
<path class="st4" d="M232.6,212.5c4.7-4.3,11.1-6.9,18-6.9c15.1,0,27.1,12,27.1,27.1c0,14.9-12,26.9-27.1,26.9  c-6.9,0-13.3-2.6-18-6.9v23.1c0,2.3-2.1,4.3-4.5,4.3c-2.2,0-4.4-2-4.4-4.3v-65.5c0-2.3,2.2-4.3,4.4-4.3c2.4,0,4.5,2,4.5,4.3V212.5z   M250.6,214.6c-10,0-18,8-18,18.1c0,10,8,18,18,18c10.2,0,18.1-8,18.1-18C268.7,222.6,260.8,214.6,250.6,214.6z"/>
<path class="st4" d="M354.4,227.8v27.1c0,2.3-2.2,4.3-4.4,4.3c-2.4,0-4.5-2-4.5-4.3v-44.6c0-2.3,2.1-4.3,4.5-4.3  c2.1,0,4.3,1.9,4.4,4.1c3.7-2.8,8.4-4.4,13.5-4.5c2.8,0,4.9,2.2,4.9,4.4c0,2.4-2.2,4.6-4.9,4.6C360.9,214.9,354.4,217.4,354.4,227.8  z"/>
<path class="st4" d="M385.5,206.1c-2.4,0-4.5,2-4.5,4.3v44.6c0,2.3,2.1,4.3,4.5,4.3c2.2,0,4.4-2,4.4-4.3v-44.6  C389.9,208,387.7,206.1,385.5,206.1z"/>
<path class="st4" d="M442.4,210.4c0-2.3,2.1-4.3,4.5-4.3c2.2,0,4.4,2,4.4,4.3v44.6c0,2.3-2.2,4.3-4.4,4.3c-2.4,0-4.5-2-4.5-4.3v-2.2  c-4.8,4.3-11.1,6.9-18,6.9c-15.1,0-27.1-12-27.1-27.1c0-14.9,12-26.9,27.1-26.9c6.9,0,13.2,2.6,18,6.9V210.4z M424.4,250.6  c10,0,18-8,18-18.1c0-10-8-18-18-18c-10.1,0-18.1,8-18.1,18C406.3,242.7,414.2,250.6,424.4,250.6z"/>
<path class="st4" d="M496.6,228.4c0-7.4-6.5-13.9-13.9-13.9c-7.2,0-13.9,2.9-13.9,13.4v27.1c0,2.3-2.2,4.3-4.4,4.3  c-2.4,0-4.5-2-4.5-4.3v-44.6c0-2.3,2.1-4.3,4.5-4.3c2.1,0,4.3,1.9,4.4,4.1c3.8-2.9,8.6-4.5,13.8-4.5c12.1,0,22.9,9.5,22.9,21.5v27.8  c0,2.3-2.2,4.3-4.4,4.3c-2.4,0-4.5-2-4.5-4.3L496.6,228.4L496.6,228.4z"/>
<path class="st4" d="M177.2,231.1c-0.2-13.7-12.5-25.4-26.9-25.4c-15.1,0-27.1,12-27.1,26.9c0,15.1,12,27.1,27.1,27.1  c7.2,0,13.9-2.8,18.7-7.6c0.9-0.8,1.6-2.1,1.6-3.3c0-2.4-2.1-4.5-4.5-4.5c-1.4,0-2.6,0.8-3.6,1.8c-3,3.2-7.5,4.7-12.2,4.7  c-9,0-16.3-6.2-17.9-14.7h40.4c0,0,0.1,0,0.1,0h0.1c0.1,0,0.1,0,0.2,0c0.2,0,0.3,0,0.5-0.1C175.6,235.2,177.2,233.4,177.2,231.1z   M150.3,214.5c8.1,0,14.9,5.2,17.2,12.5H133C135.3,219.7,142.1,214.5,150.3,214.5z"/>
<path class="st4" d="M337.9,231.1c-0.2-13.7-12.5-25.4-26.9-25.4c-15.1,0-27.1,12-27.1,26.9c0,15.1,12,27.1,27.1,27.1  c7.2,0,13.9-2.8,18.7-7.6c0.9-0.8,1.6-2.1,1.6-3.3c0-2.4-2.1-4.5-4.5-4.5c-1.4,0-2.6,0.8-3.6,1.8c-3,3.2-7.5,4.7-12.2,4.7  c-9,0-16.3-6.2-17.9-14.7h40.3c0,0,0.1,0,0.1,0h0.2c0.1,0,0.2,0,0.4-0.1c0.1,0,0.1,0,0.2,0C336.3,235.3,337.9,233.5,337.9,231.1z   M311,214.5c8.1,0,14.9,5.2,17.2,12.5h-34.4C296.1,219.7,302.8,214.5,311,214.5z"/>
<g>
	<g>
		<path class="st4" d="M514.9,259.3c-0.4,0-0.7-0.3-0.7-0.7V251h-1.7c-0.4,0-0.7-0.3-0.7-0.7c0-0.4,0.3-0.7,0.7-0.7h4.9    c0.4,0,0.7,0.3,0.7,0.7c0,0.4-0.3,0.7-0.7,0.7h-1.7v7.6C515.7,258.9,515.3,259.3,514.9,259.3z"/>
	</g>
	<g>
		<path class="st4" d="M523.7,259.3c-0.4,0-0.6-0.3-0.7-0.6l-2.1-6.2v6c0,0.4-0.3,0.7-0.7,0.7c-0.4,0-0.7-0.3-0.7-0.7v-8    c0-0.6,0.5-1.1,1.1-1.1c0.5,0,0.9,0.3,1.1,0.8l2.1,6.2l2.1-6.2c0.2-0.5,0.6-0.8,1.1-0.8c0.6,0,1.1,0.5,1.1,1.1v8    c0,0.4-0.3,0.7-0.7,0.7c-0.4,0-0.7-0.3-0.7-0.7v-6c-0.3,1-0.8,2.4-1.2,3.7c-0.8,2.5-0.8,2.5-0.9,2.5    C524.2,259.1,524,259.3,523.7,259.3z"/>
	</g>
</g>
</svg>